<svg width="179" height="49" viewBox="0 0 179 49" fill="none" xmlns="http://www.w3.org/2000/svg">
<path d="M50.5051 40.04C42.757 40.04 38.233 36.7857 38.025 30.6969H46.605C46.917 32.6915 47.801 33.7938 50.4531 33.7938C52.7411 33.7938 53.7811 32.9014 53.7811 31.5367C53.7811 30.2245 52.4811 29.5946 48.7371 29.0697C41.457 28.1249 38.389 25.9728 38.389 20.2515C38.389 14.1627 43.745 11.2233 50.0371 11.2233C56.7451 11.2233 61.4251 13.5329 62.0491 20.094H53.6251C53.2611 18.2569 52.2731 17.3646 50.1411 17.3646C48.113 17.3646 47.073 18.2569 47.073 19.5167C47.073 20.8289 48.3211 21.3538 51.6491 21.7737C59.1891 22.7185 62.8291 24.7131 62.8291 30.5919C62.8291 37.1006 58.0451 40.04 50.5051 40.04ZM82.5226 48.5333V35.1185C81.1652 37.7386 78.1371 39.9919 74.0126 39.9919C67.6953 39.9919 62.5266 35.4329 62.5266 25.9482V25.529C62.5266 16.2015 67.6431 11.2233 74.117 11.2233C78.3981 11.2233 80.9563 13.0574 82.5226 15.8347V11.957H91.868V48.5333H82.5226ZM77.0945 32.76C80.4351 32.76 82.4908 30.3947 82.4908 25.7165V25.296C82.4908 20.6705 80.5893 18.2 77.1973 18.2C73.7539 18.2 71.9037 20.5653 71.9037 25.3486V25.7691C71.9037 30.3947 73.9081 32.76 77.0945 32.76ZM103.182 39.7367C97.9044 39.7367 93.9854 36.5026 93.9854 29.6172V11.83H103.339V28.1045C103.339 31.1821 104.541 32.6948 107.205 32.6948C110.027 32.6948 111.856 31.0256 111.856 27.5308V11.83H121.209V39.1107H111.856V34.8856C110.393 37.7023 107.728 39.7367 103.182 39.7367ZM131.322 40.04C126.434 40.04 122.117 37.6255 122.117 31.7992C122.117 25.343 127.526 22.8235 136.575 22.8235H139.176V22.1936C139.176 19.5691 138.552 17.837 135.587 17.837C133.039 17.837 132.103 19.3592 131.895 21.0913H123.157C123.573 14.4777 128.722 11.2233 136.159 11.2233C143.649 11.2233 148.433 14.3202 148.433 21.6162V39.4101H139.384V36.2083C138.084 38.2029 135.691 40.04 131.322 40.04ZM134.723 33.3667C137.379 33.3667 139.359 31.8729 139.359 29.555V27.9067H136.911C133.161 27.9067 131.494 28.6278 131.494 30.8427C131.494 32.388 132.536 33.3667 134.723 33.3667ZM161.129 40.04C154.812 40.04 149.643 35.4864 149.643 26.0129V25.5942C149.643 16.2777 154.76 11.3054 161.234 11.3054C165.515 11.3054 168.073 13.1373 169.639 15.9113V0H178.985V39.4119H169.639V34.963C168.282 37.7894 165.254 40.04 161.129 40.04ZM164.211 32.76C167.552 32.76 169.608 30.3947 169.608 25.7165V25.296C169.608 20.6705 167.706 18.2 164.314 18.2C160.871 18.2 159.02 20.5653 159.02 25.3486V25.7691C159.02 30.3947 161.025 32.76 164.211 32.76Z" fill="url(#paint0_linear_4923_2977)"/>
<path fill-rule="evenodd" clip-rule="evenodd" d="M21.2273 3.9873C18.7004 5.21342 14.6716 7.41573 12.0397 9.4232C5.61433 14.3226 0 19.6351 0 26.2953C0 33.3445 5.51056 39.1113 14.0174 40.1666C15.7054 40.3754 14.2756 41.9868 14.2756 41.9868C14.2756 41.9868 15.3922 41.6268 16.1533 41.368C16.3741 41.2927 16.7398 42.0538 16.7398 42.0538C16.7398 42.0538 17.425 41.2649 17.4965 41.3186C18.3202 41.9431 19.4217 42.0538 19.4217 42.0538C19.4217 42.0538 17.9685 40.381 19.7785 40.1394C28.1677 39.0164 33.5878 33.2869 33.5878 26.2953C33.5878 19.2783 29.3761 14.3789 21.2046 9.11067C20.1493 8.43054 20.0297 6.50976 21.2273 3.9873ZM18.0248 11.0498C22.3636 14.9743 24.5331 19.8781 24.5331 24.7819C24.5331 29.6851 22.3636 34.5889 18.0248 38.5134C24.1547 31.0295 25.4416 19.3359 18.0248 11.0498ZM15.5302 11.0485C11.1913 14.973 9.02187 19.8768 9.02187 24.7807C9.02187 29.6845 11.1913 34.5877 15.5302 38.5121C9.39961 31.0283 8.11339 19.3346 15.5302 11.0485ZM16.7778 38.0446C17.1061 33.5343 17.2706 29.024 17.2706 24.513C17.2706 20.0027 17.1061 15.4924 16.7778 10.9821C15.8206 20.0027 15.8206 29.024 16.7778 38.0446ZM22.1871 12.5195C27.0036 16.5363 29.7848 21.1637 30.0094 25.631C30.2334 30.0976 27.9008 34.4042 22.4895 37.7789C32.0258 29.4928 29.9063 20.338 22.1871 12.5195ZM11.3678 12.5189C6.5513 16.535 3.77008 21.1624 3.54548 25.6297C3.32089 30.0963 5.65354 34.4029 11.0648 37.7776C1.52917 29.4915 3.64798 20.3368 11.3678 12.5189Z" fill="url(#paint1_linear_4923_2977)"/>
<defs>
<linearGradient id="paint0_linear_4923_2977" x1="38.025" y1="24.267" x2="178.984" y2="24.267" gradientUnits="userSpaceOnUse">
<stop stop-color="#FF4C1D"/>
<stop offset="1" stop-color="#9B0063"/>
</linearGradient>
<linearGradient id="paint1_linear_4923_2977" x1="0" y1="26.6711" x2="167.051" y2="26.6711" gradientUnits="userSpaceOnUse">
<stop stop-color="#FF4C1D"/>
<stop offset="1" stop-color="#9B0063"/>
</linearGradient>
</defs>
</svg>
