<?xml version="1.0" encoding="iso-8859-1"?>
<!-- Generator: Adobe Illustrator 19.0.0, SVG Export Plug-In . SVG Version: 6.00 Build 0)  -->
<svg version="1.1" id="Layer_1" xmlns="http://www.w3.org/2000/svg" xmlns:xlink="http://www.w3.org/1999/xlink" x="0px" y="0px"
	 viewBox="0 0 512 512" style="enable-background:new 0 0 512 512;" xml:space="preserve">
<circle style="fill:#2D4452;" cx="256" cy="256" r="256"/>
<path style="fill:#233540;" d="M414.96,168h-320v180l56.332,141.596C183.268,503.948,218.68,512,255.996,512
	c105,0,195.188-63.244,234.68-153.692L414.96,168z"/>
<polygon style="fill:#45998B;" points="413.7,348 93.7,348 93.7,168 413.7,168 413.7,228 "/>
<path style="fill:#B8E6DF;" d="M405.7,300v-84c-20,0-37.7-17.912-37.7-40H148c0,22.088-19.06,40-41.152,40
	c-1.352,0-1.152-0.072-5.152-0.204v84.408c4-0.132,3.8-0.204,5.152-0.204C128.94,300,148,317.912,148,340h220
	C368,317.912,385.7,300,405.7,300z"/>
<g>
	<circle style="fill:#45998B;" cx="156" cy="258" r="20"/>
	<circle style="fill:#45998B;" cx="356" cy="258" r="20"/>
	<circle style="fill:#45998B;" cx="256" cy="258" r="60"/>
</g>
<path style="fill:#F5F5F5;" d="M274.66,226.792l-2.752,12.916c-2.64-2.64-6.5-3.956-11.564-3.956c-5.068,0-9.172,1.812-12.312,5.448
	c-1.772,2.06-3.032,4.616-3.776,7.696h25.648l-1.488,7.232h-25.088c-0.032,0.716-0.044,1.632-0.044,2.752
	c0,1.084,0.028,2.228,0.092,3.408h23.74l-1.492,7.228h-21.26c0.776,3.328,1.972,5.936,3.588,7.836c3.108,3.668,7.152,5.5,12.124,5.5
	c5.968,0,10.732-1.832,14.268-5.5v14.268c-4.04,2.02-8.752,3.028-14.128,3.028c-9.08,0-16.54-3.104-22.384-9.324
	c-3.98-4.228-6.604-9.496-7.88-15.808h-6.9l1.492-7.228h4.572c-0.032-0.752-0.048-1.544-0.048-2.384
	c0-1.424,0.028-2.688,0.092-3.772h-6.108l1.492-7.232h5.548c1.308-6.188,3.9-11.364,7.788-15.528
	c5.876-6.276,13.6-9.416,23.176-9.416C266.264,223.948,270.804,224.896,274.66,226.792z"/>
<g>
</g>
<g>
</g>
<g>
</g>
<g>
</g>
<g>
</g>
<g>
</g>
<g>
</g>
<g>
</g>
<g>
</g>
<g>
</g>
<g>
</g>
<g>
</g>
<g>
</g>
<g>
</g>
<g>
</g>
</svg>
